<?xml version="1.0" encoding="iso-8859-1"?>
<!-- Generator: Adobe Illustrator 19.0.0, SVG Export Plug-In . SVG Version: 6.00 Build 0)  -->
<svg version="1.1" id="Layer_1" xmlns="http://www.w3.org/2000/svg" xmlns:xlink="http://www.w3.org/1999/xlink" x="0px" y="0px"
	 viewBox="0 0 473.961 473.961" style="enable-background:new 0 0 473.961 473.961;" xml:space="preserve">
<path style="fill:#008593;" d="M0,236.988C0,106.101,106.105,0,236.981,0c130.883,0,236.981,106.098,236.981,236.988
	c0,130.876-106.098,236.973-236.981,236.973C106.105,473.961,0,367.864,0,236.988z"/>
<g>
	<polygon style="fill:#FFC50B;" points="239.51,135.957 255.622,168.596 291.644,173.835 265.579,199.245 271.738,235.125 
		239.51,218.182 207.286,235.125 213.441,199.245 187.372,173.835 223.402,168.596 	"/>
	<polygon style="fill:#FFC50B;" points="371.276,135.957 387.388,168.604 423.41,173.835 397.341,199.241 403.496,235.125 
		371.276,218.186 339.052,235.125 345.207,199.241 319.138,173.835 355.16,168.604 	"/>
</g>
<polygon style="fill:#51B0B9;" points="300.736,255.97 316.852,288.617 352.874,293.848 326.805,319.254 332.964,355.138 
	300.736,338.199 268.516,355.138 274.675,319.254 248.599,293.848 284.628,288.617 "/>
<g>
	<polygon style="fill:#FFC50B;" points="101.465,135.018 117.581,167.665 153.603,172.896 127.534,198.302 133.693,234.186 
		101.465,217.247 69.245,234.186 75.404,198.302 49.331,172.896 85.361,167.665 	"/>
	<polygon style="fill:#FFC50B;" points="169.898,251.506 186.014,284.149 222.036,289.384 195.967,314.791 202.122,350.674 
		169.898,333.731 137.678,350.674 143.83,314.791 117.764,289.384 153.786,284.149 	"/>
</g>
<g>
</g>
<g>
</g>
<g>
</g>
<g>
</g>
<g>
</g>
<g>
</g>
<g>
</g>
<g>
</g>
<g>
</g>
<g>
</g>
<g>
</g>
<g>
</g>
<g>
</g>
<g>
</g>
<g>
</g>
</svg>
