<?xml version="1.0" encoding="iso-8859-1"?>
<!-- Generator: Adobe Illustrator 19.0.0, SVG Export Plug-In . SVG Version: 6.00 Build 0)  -->
<svg version="1.1" id="Capa_1" xmlns="http://www.w3.org/2000/svg" xmlns:xlink="http://www.w3.org/1999/xlink" x="0px" y="0px"
	 viewBox="0 0 155.301 155.301" style="enable-background:new 0 0 155.301 155.301;" xml:space="preserve">
<g>
	<g>
		<circle style="fill:#98E2ED;" cx="77.651" cy="77.65" r="77.65"/>
	</g>
	<g>
		<g>
			<path style="fill:#FFFFFF;" d="M114.184,103.587c-6.647-1.446-9.087,5.202-16.717-3.592c-0.656,1.75-2.469,3.397-2.469,4.91
				v1.379c4,3.651,7.841,7.784,12.523,7.899C117.642,114.433,121.006,105.071,114.184,103.587z"/>
			<path style="fill:#FFB1A5;" d="M59.548,37.681c-2.071-1.712-4.399-3.332-5.75-3.282c-1.371,0.051-2.769,5.978-2.399,10.028
				C53.714,41.751,56.467,39.466,59.548,37.681z"/>
			<path style="fill:#FFB1A5;" d="M100.187,45.106c0.614-4.027-0.865-10.653-2.316-10.708c-1.411-0.053-3.886,1.715-6.021,3.506
				C95.03,39.81,97.852,42.251,100.187,45.106z"/>
			<path style="fill:#FBFBFB;" d="M97.467,99.996c0.927-2.47,1.385-5.144,1.385-7.938c0-1.561-0.185-3.086-0.486-4.558
				c-5.791,5.948-13.893,9.647-22.85,9.647c-8.356,0-15.964-3.219-21.648-8.481c-0.167,1.107,0.071,2.239,0.071,3.392
				c0,5.212,2.06,10.008,5.06,13.83v17.786c0,2.036,0.992,4.52,3.028,4.52h3.63c2.036,0,4.342-2.484,4.342-4.52v-10.083
				c1,0.689,4.247,1.063,6.639,1.063c2.66,0,4.361-0.464,7.361-1.308v10.327c0,2.036,1.436,4.52,3.472,4.52h3.631
				c2.036,0,3.897-2.484,3.897-4.52v-17.39v-1.379C94.998,103.393,96.811,101.746,97.467,99.996z"/>
			<path style="fill:#FFFFFF;" d="M98.339,87.499c0.441-0.454,0.868-0.922,1.283-1.401c5.396,0.528,9.87,2.542,13.747,6.543
				c0.349,0.36,0.926-0.169,0.65-0.568c-2.976-4.305-8.59-6.754-13.83-6.64c1.13-1.382,2.141-2.863,3.029-4.424
				c2.668,0.024,5.302,0.312,7.973,0.963c0.35,0.085,0.542-0.477,0.2-0.607c-2.521-0.952-5.092-1.296-7.688-1.237
				c0.971-1.841,1.767-3.787,2.367-5.819c2.613-0.477,5.314-0.543,8.19-0.108c0.605,0.091,0.722-0.729,0.17-0.909
				c-2.65-0.857-5.35-0.866-7.987-0.348c0.608-2.459,0.936-5.028,0.936-7.675c0-5.313-1.308-10.318-3.607-14.724
				c3.239-6.769-0.641-25.745-6.011-22.869c-3.258,1.743-7.145,5.375-9.907,8.2c-3.799-1.598-7.972-2.482-12.352-2.482
				c-4.198,0-8.204,0.819-11.874,2.294c-2.749-2.796-6.535-6.308-9.721-8.012c-5.196-2.783-8.997,14.895-6.304,22.175
				c-2.531,4.57-3.976,9.824-3.976,15.417c0,2.568,0.312,5.063,0.886,7.455c-2.188-0.264-4.405-0.139-6.586,0.568
				c-0.553,0.179-0.436,1,0.168,0.909c2.362-0.357,4.604-0.376,6.779-0.108c0.606,2.111,1.423,4.132,2.43,6.039
				c-2.138,0.073-4.256,0.446-6.34,1.233c-0.342,0.13-0.15,0.692,0.2,0.607c2.226-0.543,4.428-0.829,6.646-0.925
				c0.888,1.555,1.896,3.031,3.024,4.408c-4.836,0.289-9.773,2.675-12.498,6.617c-0.276,0.399,0.302,0.928,0.65,0.568
				c3.58-3.695,7.671-5.693,12.526-6.393c0.741,0.846,1.522,1.654,2.347,2.417c5.685,5.262,13.287,8.481,21.643,8.481
				C84.46,97.146,92.548,93.447,98.339,87.499z M97.871,34.399c1.451,0.055,2.93,6.68,2.316,10.708
				c-2.335-2.855-5.156-5.297-8.337-7.201C93.985,36.114,96.46,34.346,97.871,34.399z M85.694,56.184
				c3.109-0.288,5.86,1.999,6.149,5.106c0.288,3.108-1.998,5.861-5.108,6.148c-3.107,0.287-5.858-2.001-6.144-5.108
				C80.302,59.223,82.588,56.47,85.694,56.184z M70.321,62.331c-0.286,3.107-3.037,5.395-6.144,5.108
				c-3.11-0.288-5.396-3.04-5.108-6.148c0.289-3.107,3.04-5.394,6.149-5.106C68.323,56.47,70.61,59.223,70.321,62.331z
				 M53.797,34.399c1.351-0.05,3.68,1.569,5.75,3.282c-3.08,1.785-5.833,4.07-8.15,6.747C51.028,40.377,52.426,34.45,53.797,34.399z
				 M69.53,87.94c0-0.333,0.034-0.687,0.086-1.048c-1.17,0.408-2.448,0.637-3.79,0.637c-5.536,0-10.025-3.83-10.025-8.553
				c0-0.386,0.041-0.763,0.098-1.136c0.28-0.021,0.473-0.396,0.174-0.582c-0.02-0.012-0.04-0.024-0.059-0.036
				c0.948-3.883,4.98-6.8,9.812-6.8c1.447,0,2.818,0.267,4.06,0.737c1.052-0.977,2.855-1.64,5.618-1.64
				c2.762,0,4.564,0.663,5.615,1.639c1.242-0.47,2.613-0.736,4.059-0.736c5.538,0,10.026,3.829,10.026,8.555
				c0,4.724-4.489,8.553-10.026,8.553c-1.341,0-2.618-0.229-3.787-0.636c0.052,0.361,0.086,0.714,0.086,1.047
				c0,3.299-2.674,5.975-5.975,5.975C72.203,93.914,69.53,91.239,69.53,87.94z"/>
			<path style="fill:#EBEBED;" d="M86.735,67.438c3.11-0.288,5.396-3.04,5.108-6.148c-0.288-3.107-3.039-5.394-6.149-5.106
				c-3.106,0.286-5.392,3.039-5.103,6.147C80.877,65.438,83.628,67.725,86.735,67.438z M85.238,58.63
				c3.673-1.098,6.054,3.382,4.15,5.644c-0.592-1.63-2.334-3.007-4.464-2.37c-0.79,0.235-1.325,0.652-1.65,1.161
				C82.563,61.378,82.983,59.306,85.238,58.63z"/>
			<path style="fill:#353A42;" d="M84.925,61.904c2.13-0.637,3.872,0.74,4.464,2.37c1.903-2.262-0.478-6.742-4.15-5.644
				c-2.256,0.676-2.675,2.748-1.964,4.436C83.599,62.557,84.134,62.14,84.925,61.904z"/>
			<path style="fill:#EBEBED;" d="M59.069,61.29c-0.287,3.108,1.999,5.861,5.108,6.148c3.107,0.287,5.858-2.001,6.144-5.108
				c0.289-3.108-1.997-5.86-5.103-6.147C62.108,55.896,59.357,58.183,59.069,61.29z M67.731,63.065
				c-0.325-0.509-0.86-0.926-1.649-1.161c-2.13-0.637-3.873,0.74-4.465,2.37c-1.903-2.262,0.477-6.742,4.15-5.644
				C68.024,59.306,68.443,61.378,67.731,63.065z"/>
			<path style="fill:#353A42;" d="M61.617,64.274c0.592-1.63,2.334-3.007,4.465-2.37c0.789,0.235,1.325,0.652,1.649,1.161
				c0.711-1.688,0.293-3.76-1.964-4.436C62.094,57.532,59.714,62.012,61.617,64.274z"/>
			<path style="fill:#FFB1A5;" d="M81.478,87.94c0-0.333-0.034-0.687-0.086-1.047c-2.875-1.002-5.075-3.11-5.889-5.704
				c-0.814,2.594-3.012,4.701-5.887,5.704c-0.053,0.361-0.086,0.715-0.086,1.048c0,3.299,2.674,5.975,5.973,5.975
				C78.803,93.914,81.478,91.239,81.478,87.94z"/>
			<path style="fill:#EBEBED;" d="M75.503,81.188c0.814,2.594,3.014,4.702,5.889,5.704c1.169,0.408,2.446,0.636,3.787,0.636
				c5.538,0,10.026-3.83,10.026-8.553c0-4.725-4.489-8.555-10.026-8.555c-1.446,0-2.817,0.266-4.059,0.736
				c0.824,0.765,1.187,1.723,1.187,2.706c0,2.242-4.334,6.865-6.802,6.865c-2.471,0-6.804-4.623-6.804-6.865
				c0-0.983,0.363-1.941,1.186-2.706c-1.242-0.47-2.613-0.737-4.06-0.737c-4.832,0-8.864,2.917-9.812,6.8
				c0.019,0.012,0.04,0.024,0.059,0.036c0.299,0.186,0.106,0.561-0.174,0.582c-0.058,0.373-0.098,0.75-0.098,1.136
				c0,4.724,4.489,8.553,10.025,8.553c1.341,0,2.62-0.229,3.79-0.637C72.491,85.89,74.689,83.782,75.503,81.188z"/>
			<path style="fill:#353A42;" d="M68.7,73.864c0,2.242,4.334,6.865,6.804,6.865c2.468,0,6.802-4.623,6.802-6.865
				c0-0.984-0.363-1.942-1.187-2.706c-1.051-0.977-2.854-1.639-5.615-1.639c-2.763,0-4.566,0.663-5.618,1.64
				C69.064,71.922,68.7,72.88,68.7,73.864z"/>
		</g>
		<path style="opacity:0.3;fill:#9B9DA0;" d="M114.184,103.587c-6.647-1.446-9.193,5.202-16.822-3.592
			c0.927-2.47,1.438-5.144,1.438-7.938c0-1.561-0.159-3.086-0.46-4.558c0.441-0.454,0.868-0.922,1.283-1.401
			c5.396,0.528,9.87,2.542,13.747,6.543c0.349,0.36,0.926-0.169,0.65-0.568c-2.976-4.305-8.59-6.754-13.83-6.64
			c1.13-1.382,2.141-2.863,3.029-4.424c2.668,0.024,5.302,0.312,7.973,0.963c0.35,0.085,0.542-0.477,0.2-0.607
			c-2.521-0.952-5.092-1.296-7.688-1.237c0.971-1.841,1.767-3.787,2.367-5.819c2.613-0.477,5.314-0.543,8.19-0.108
			c0.605,0.091,0.722-0.729,0.17-0.909c-2.65-0.857-5.35-0.866-7.987-0.348c0.608-2.459,0.936-5.028,0.936-7.675
			c0-5.313-1.308-10.318-3.607-14.724c3.239-6.769-0.641-25.745-6.011-22.869c-3.258,1.743-7.145,5.375-9.907,8.2
			c-3.59-1.51-7.517-2.373-11.635-2.465v81.24c2.654-0.002,5.199-0.464,7.565-1.307v10.327c0,2.036,1.65,3.686,3.686,3.686h3.631
			c2.036,0,3.686-1.65,3.686-3.686v-17.39c3.251,3.651,7.946,7.784,12.629,7.899C117.536,114.433,121.006,105.071,114.184,103.587z"
			/>
	</g>
</g>
<g>
</g>
<g>
</g>
<g>
</g>
<g>
</g>
<g>
</g>
<g>
</g>
<g>
</g>
<g>
</g>
<g>
</g>
<g>
</g>
<g>
</g>
<g>
</g>
<g>
</g>
<g>
</g>
<g>
</g>
</svg>
