<?xml version="1.0" encoding="iso-8859-1"?>
<!-- Generator: Adobe Illustrator 19.0.0, SVG Export Plug-In . SVG Version: 6.00 Build 0)  -->
<svg version="1.1" id="Layer_1" xmlns="http://www.w3.org/2000/svg" xmlns:xlink="http://www.w3.org/1999/xlink" x="0px" y="0px"
	 viewBox="0 0 511.998 511.998" style="enable-background:new 0 0 511.998 511.998;" xml:space="preserve">
<g>
	<path style="fill:#507C5C;" d="M149.236,288.226v-46.507c18.563,3.256,21.354,13.545,21.775,19.596
		c0.108,1.551,1.388,2.748,2.942,2.748h20.274c1.703,0,3.043-1.442,2.956-3.142c-1.316-25.508-18.799-41.92-47.947-45.606v-15.64
		c0-1.63-1.321-2.951-2.951-2.951h-20.274c-1.63,0-2.951,1.321-2.951,2.951v15.64c-30.327,3.835-48.026,21.446-48.026,48.748
		s17.7,44.912,48.026,48.746v46.507c-18.563-3.256-21.354-13.545-21.775-19.596c-0.108-1.551-1.388-2.748-2.942-2.748H78.067
		c-1.703,0-3.043,1.442-2.956,3.142c1.316,25.508,18.799,41.921,47.947,45.606v15.64c0,1.63,1.321,2.951,2.951,2.951h20.274
		c1.63,0,2.951-1.321,2.951-2.951v-15.64c30.327-3.835,48.026-21.446,48.026-48.748
		C197.263,309.674,179.564,292.062,149.236,288.226z M123.058,286.41c-21.844-3.83-21.849-17.402-21.849-22.344
		c0-4.942,0.005-18.514,21.849-22.346V286.41z M149.236,359.319v-44.691c21.844,3.83,21.849,17.404,21.849,22.346
		C171.085,341.915,171.081,355.488,149.236,359.319z"/>
	<path style="fill:#507C5C;" d="M409.959,511.998H18.765c-8.759,0-15.859-7.102-15.859-15.859V160.782
		c0-8.757,7.1-15.859,15.859-15.859s15.859,7.102,15.859,15.859v319.5h375.335c8.757,0,15.859,7.102,15.859,15.859
		C425.818,504.898,418.717,511.998,409.959,511.998z"/>
</g>
<g>
	
		<rect x="392.865" y="81.497" transform="matrix(0.5062 -0.8624 0.8624 0.5062 122.129 436.5211)" style="fill:#CFF09E;" width="98.785" height="60.227"/>
	<path style="fill:#CFF09E;" d="M140.823,126.645h257.71l42.758-72.851l34.982,20.531c-5.246-33.003-34.005-58.443-68.426-58.443
		H85.414c38.108,0,69.287,31.179,69.287,69.287l0,0C154.701,100.693,149.528,115.06,140.823,126.645z"/>
</g>
<path style="fill:#507C5C;" d="M508.582,80.289c-1.059-4.071-3.692-7.555-7.321-9.682l-10.929-6.415
	c-9.52-37.074-43.679-64.165-82.485-64.165H91.845c0,0-1.892-0.027-2.831-0.027C41.488-0.002,2.906,38.436,2.906,85.963
	c0,8.757,7.1,15.859,15.859,15.859s15.859-7.102,15.859-15.859c0-28.488,21.987-51.921,49.879-54.265
	c0.303,0.017,0.604,0.046,0.912,0.046c29.46,0,53.426,23.968,53.426,53.428c0,11.587-3.7,22.633-10.697,31.947
	c-3.61,4.804-4.195,11.236-1.51,16.612c2.685,5.378,8.179,8.773,14.188,8.773h230.012L249.079,349.942
	c-2.195,3.736-2.763,8.212-1.573,12.38l11.423,40.03c1.981,6.94,8.31,11.511,15.239,11.511c1.204,0,2.426-0.138,3.648-0.427
	l40.519-9.544c4.219-0.993,7.847-3.67,10.04-7.409l65.722-111.972v135.562c0,8.757,7.102,15.859,15.859,15.859
	c8.757,0,15.859-7.102,15.859-15.859V228.489c0-1.756-0.297-3.441-0.825-5.021c-0.921-4.15-3.483-7.925-7.44-10.248
	c-7.549-4.431-17.271-1.903-21.705,5.651l-91.392,155.705l-19.18,4.518l-5.408-18.948l117.064-199.448l38.265,22.46
	c2.457,1.442,5.23,2.182,8.029,2.182c1.337,0,2.679-0.168,3.995-0.511c4.071-1.059,7.554-3.692,9.682-7.321l50.005-85.197
	C509.041,88.683,509.64,84.358,508.582,80.289z M151.664,31.744h256.182c9.771,0,19.072,2.737,27.095,7.517
	c-0.059,0.025-0.109,0.063-0.167,0.089c-0.66,0.298-1.299,0.636-1.916,1.025c-0.098,0.06-0.19,0.128-0.285,0.192
	c-0.59,0.387-1.159,0.814-1.699,1.283c-0.044,0.038-0.09,0.071-0.135,0.109c-0.55,0.492-1.063,1.029-1.546,1.605
	c-0.098,0.114-0.192,0.232-0.285,0.352c-0.465,0.584-0.907,1.193-1.296,1.854l-38.162,65.016H166.626
	c2.599-8.202,3.933-16.809,3.933-25.613C170.559,64.956,163.479,46.364,151.664,31.744z M437.578,147.772l-24.586-14.433
	l33.95-57.84l24.588,14.432L437.578,147.772z"/>
<g>
</g>
<g>
</g>
<g>
</g>
<g>
</g>
<g>
</g>
<g>
</g>
<g>
</g>
<g>
</g>
<g>
</g>
<g>
</g>
<g>
</g>
<g>
</g>
<g>
</g>
<g>
</g>
<g>
</g>
</svg>
